#!OML:ASF I:\Actors\actors\Patient Classification 1\Patient 1\Session 1\Subject1.ASF
:FULLY-SPECIFIED
:DEGREES
145
root -0.82839 17.6281 8.01357 6.49099 9.92598 -9.25845
lowerback 4.25358 4.33139 9.36389
upperback -9.7766 6.69059 -2.39857
thorax -11.7257 2.23879 -8.75847
lowerneck -11.7082 -9.37667 -5.59089
upperneck 14.7018 -13.1302 7.65252
head 7.31735 -5.99569 2.01667
rclavicle -3.97569e-014 1.59028e-014
rhumerus 38.6307 17.4812 -46.061
rradius 62.0978
rwrist 0.920525
rhand 8.41371 -46.9768
rfingers 7.12502
rthumb 33.6203 -73.8441
lclavicle -3.97569e-014 1.59028e-014
lhumerus -36.6364 -28.1117 81.5781
lradius 119.717
lwrist 22.5652
lhand -6.36818 -23.8179
lfingers 7.12502
lthumb 19.4784 5.22646
rfemur 0.184662 22.7104 28.8575
rtibia 0.92667
rfoot -15.8948 -32.11
rtoes 14.0296
lfemur -1.68333 -34.6331 -5.42147
ltibia -1.485
lfoot -7.12094 34.9214
ltoes -10.74
146
root -0.83824 17.6349 7.98631 6.24632 9.56422 -9.47582
lowerback 4.6012 4.7446 10.3522
upperback -9.63673 7.35788 -2.6983
thorax -11.5005 2.47526 -9.73185
lowerneck -12.3833 -9.52706 -5.48852
upperneck 15.5427 -13.3409 7.32967
head 7.69389 -6.07625 1.82787
rclavicle -5.42682e-014 2.22639e-014
rhumerus 43.6415 16.541 -45.9339
rradius 45.8524
rwrist 4.78985
rhand 4.8532 -44.5065
rfingers 7.12502
rthumb 30.2299 -72.0519
lclavicle -5.42682e-014 2.22639e-014
lhumerus -35.4598 -28.1201 80.3655
lradius 119.423
lwrist 22.2196
lhand -6.62122 -23.8437
lfingers 7.12502
lthumb 19.2351 5.22508
rfemur 0.203141 22.5732 29.0963
rtibia 1.06724
rfoot -15.5819 -31.5513
rtoes 13.8556
lfemur -1.26515 -34.7371 -5.4016
ltibia -1.60195
lfoot -7.15581 35.4936
ltoes -10.3779
147
root -0.847884 17.643 7.96357 6.16938 9.11785 -9.61321
lowerback 4.78625 5.2125 11.2522
upperback -9.53621 8.07624 -3.01618
thorax -11.1862 2.75695 -10.6582
lowerneck -12.8809 -9.69081 -5.61345
upperneck 16.1223 -13.5387 7.16407
head 7.98233 -6.16197 1.73512
rclavicle 9.52179e-014 -3.18055e-015
rhumerus 48.0042 14.4294 -47.3519
rradius 30.1121
rwrist 12.3707
rhand 3.17106 -43.961
rfingers 7.12502
rthumb 28.624 -71.7888
lclavicle 9.52179e-014 -3.18055e-015
lhumerus -34.1587 -28.1594 79.2749
lradius 119.027
lwrist 21.4775
lhand -6.75576 -23.8604
lfingers 7.12502
lthumb 19.1057 5.22123
rfemur 0.0708837 22.4448 29.1878
rtibia 1.18811
rfoot -15.2853 -30.9662
rtoes 13.5479
lfemur -1.02126 -34.6023 -5.35212
ltibia -1.72161
lfoot -7.13109 35.9232
ltoes -10.3615
148
root -0.860006 17.6537 7.94719 6.23422 8.61884 -9.6945
lowerback 4.87558 5.76582 12.0219
upperback -9.48319 8.88397 -3.39461
thorax -10.8197 3.10166 -11.5673
lowerneck -13.1371 -9.90624 -5.95597
upperneck 16.3443 -13.8052 7.31467
head 8.15585 -6.28025 1.78316
rclavicle -4.37326e-015 2.54444e-014
rhumerus 49.7626 5.02431 -59.5433
rradius 16.9419
rwrist 36.2301
rhand 3.64297 -41.2632
rfingers 7.12502
rthumb 29.0748 -69.0141
lclavicle -4.37326e-015 2.54444e-014
lhumerus -32.9711 -28.4256 78.33
lradius 118.658
lwrist 20.6616
lhand -6.98643 -24.0617
lfingers 7.12502
lthumb 18.8839 5.04164
rfemur -0.205526 22.3691 29.198
rtibia 1.35554
rfoot -14.9874 -30.4131
rtoes 13.0045
lfemur -0.944404 -34.1364 -5.22306
ltibia -1.8595
lfoot -7.00209 36.0896
ltoes -10.685
149
root -0.87391 17.6666 7.93775 6.34413 8.24068 -9.78784
lowerback 4.97479 6.43913 12.718
upperback -9.44554 9.8413 -3.87985
thorax -10.3911 3.53511 -12.5518
lowerneck -13.2211 -10.2881 -6.46839
upperneck 16.3421 -14.3503 7.91938
head 8.29636 -6.50764 1.97527
rclavicle -2.62396e-014 2.54444e-014
rhumerus 61.2181 -25.4887 -106.319
rradius 11.0973
rwrist 97.395
rhand 4.77903 -36.5608
rfingers 7.12502
rthumb 30.1592 -64.1192
lclavicle -2.62396e-014 2.54444e-014
lhumerus -31.6294 -29.0049 77.5769
lradius 118.158
lwrist 20.0163
lhand -7.08471 -24.4929
lfingers 7.12502
lthumb 18.7894 4.61964
rfemur -0.446025 22.4694 29.2688
rtibia 1.47927
rfoot -14.9088 -30.079
rtoes 12.8949
lfemur -1.0125 -33.6178 -4.98809
ltibia -1.91475
lfoot -6.95314 36.0451
ltoes -10.8845
150
root -0.88804 17.6789 7.93697 6.43382 8.09953 -9.88907
lowerback 5.09408 6.98463 13.0138
upperback -9.44253 10.5959 -4.27943
thorax -10.1133 3.89603 -13.2058
lowerneck -13.2369 -10.6274 -6.86792
upperneck 16.2785 -14.8968 8.70076
head 8.4179 -6.71507 2.2095
rclavicle -6.61953e-014 1.27222e-014
rhumerus 50.3351 -13.2904 -78.9037
rradius 14.2086
rwrist 65.4862
rhand 5.62019 -39.3557
rfingers 7.12502
rthumb 30.9613 -66.7645
lclavicle -6.61953e-014 1.27222e-014
lhumerus -30.513 -29.2928 77.1406
lradius 117.848
lwrist 19.785
lhand -7.13749 -24.7422
lfingers 7.12502
lthumb 18.7386 4.37526
rfemur -0.547623 22.5537 29.4018
rtibia 1.47104
rfoot -14.9246 -29.9756
rtoes 12.948
lfemur -1.17727 -33.1244 -4.7022
ltibia -1.87981
lfoot -7.02502 35.772
ltoes -10.8411
